<svg width="45" height="45" viewBox="0 0 45 45" fill="none" xmlns="http://www.w3.org/2000/svg">
<rect x="0.424528" y="0.424528" width="44.1509" height="44.1509" rx="6.36792" stroke="#343437" stroke-width="0.849057"/>
<path d="M20.4231 12.7125C22.0231 11.7625 24.0231 11.7625 25.6231 12.7125C27.2231 13.6625 28.1631 15.4125 28.0931 17.2625V17.4925C29.3531 17.4925 30.6831 18.3725 31.1431 20.5125L31.9131 26.5025C32.4841 30.4125 30.2131 32.0025 27.1631 32.0025H18.8731C15.8141 32.0025 13.4731 30.9025 14.1031 26.5025L14.8831 20.5125C15.0031 19.6225 15.4331 18.7925 16.1031 18.1825C16.6141 17.7335 17.2731 17.4925 17.9531 17.4925V17.2625C17.8731 15.4125 18.8241 13.6625 20.4231 12.7125ZM25.8931 20.7125C25.4041 20.7125 25.0031 21.1025 25.0031 21.5925C25.0031 22.0725 25.4041 22.4725 25.8931 22.4725C26.1231 22.4725 26.3531 22.3825 26.5131 22.2125C26.6831 22.0525 26.7731 21.8225 26.7731 21.5925C26.7731 21.1025 26.3731 20.7125 25.8931 20.7125ZM20.0931 20.7125C19.6031 20.7125 19.2031 21.1025 19.2031 21.5925C19.2031 22.0725 19.6031 22.4725 20.0931 22.4725C20.5831 22.4725 20.9731 22.0725 20.9731 21.5925C20.9731 21.1025 20.5831 20.7125 20.0931 20.7125ZM23.0031 13.7425C21.0531 13.7425 19.4731 15.3225 19.4731 17.2625V17.4835H26.5431V17.2625C26.5431 15.3225 24.9631 13.7425 23.0031 13.7425Z" fill="#8B7EFF"/>
</svg>
