<svg width="45" height="45" viewBox="0 0 45 45" fill="none" xmlns="http://www.w3.org/2000/svg">
<rect x="0.424528" y="0.424528" width="44.1509" height="44.1509" rx="6.36792" stroke="#343437" stroke-width="0.849057"/>
<path d="M21.1528 15.5553C21.2037 15.659 21.2373 15.77 21.2524 15.8842L21.5308 20.0241L21.669 22.1049C21.6705 22.3189 21.704 22.5315 21.7687 22.7359C21.9356 23.1324 22.3372 23.3844 22.7741 23.3668L29.4313 22.9314C29.7196 22.9266 29.998 23.0344 30.2052 23.2311C30.3779 23.395 30.4894 23.6094 30.5246 23.84L30.5364 23.98C30.2609 27.7947 27.4592 30.9765 23.6524 31.7978C19.8456 32.6191 15.9419 30.8841 14.0607 27.5347C13.5184 26.5616 13.1797 25.4921 13.0644 24.3888C13.0162 24.0622 12.995 23.7323 13.001 23.4024C12.995 19.3125 15.9075 15.7768 19.9843 14.9244C20.475 14.848 20.956 15.1077 21.1528 15.5553Z" fill="#8B7EFF"/>
<path opacity="0.4" d="M23.8686 12.0008C28.4285 12.1168 32.2609 15.3958 32.9986 19.8123L32.9916 19.8449L32.9714 19.8923L32.9742 20.0224C32.9638 20.1947 32.8972 20.3605 32.7826 20.4945C32.6631 20.634 32.4999 20.729 32.3202 20.7659L32.2106 20.7809L24.5298 21.2786C24.2743 21.3038 24.0199 21.2214 23.8299 21.052C23.6716 20.9107 23.5704 20.7201 23.5418 20.5147L23.0263 12.8451C23.0173 12.8191 23.0173 12.791 23.0263 12.7651C23.0333 12.5537 23.1264 12.3538 23.2846 12.2102C23.4429 12.0666 23.6532 11.9912 23.8686 12.0008Z" fill="#8B7EFF"/>
</svg>
