<svg width="45" height="45" viewBox="0 0 45 45" fill="none" xmlns="http://www.w3.org/2000/svg">
<rect x="0.424528" y="0.424528" width="44.1509" height="44.1509" rx="6.36792" stroke="#343437" stroke-width="0.849057"/>
<path d="M21.8268 29.673C21.802 29.6978 21.7763 29.7211 21.7501 29.7438C21.9043 29.6935 22.0444 29.6073 22.1587 29.4921L22.5373 29.1136L22.2586 28.835C22.2125 29.1453 22.0678 29.4325 21.8457 29.6541L21.8268 29.673ZM30.3578 15.0288C29.6025 14.2736 28.4619 14.0163 27.3809 14.3569L23.095 15.7084L23.0941 15.7087L20.4607 16.5392L20.4798 16.7448C20.4804 16.7503 20.4807 16.7559 20.481 16.7614C20.4868 16.9533 20.532 17.1419 20.6139 17.3156C20.6958 17.4892 20.8126 17.6441 20.957 17.7706C21.1061 17.8984 21.2799 17.9942 21.4676 18.052C21.6554 18.1097 21.8529 18.1282 22.0481 18.1063L23.5715 17.9569C23.6388 17.9503 23.7065 17.9646 23.7653 17.998C23.8241 18.0313 23.8712 18.082 23.9001 18.1431C23.9291 18.2042 23.9384 18.2728 23.9269 18.3394C23.9153 18.406 23.8835 18.4674 23.8357 18.5153L23.4649 18.8866L28.3825 23.8108C29.0097 24.4389 29.0371 25.433 28.4442 26.0283L28.4419 26.0307C28.2199 26.2521 27.9328 26.3964 27.6227 26.4424L28.0029 26.823C28.046 26.8663 28.0869 26.9119 28.1252 26.9596C29.5799 25.505 31.298 23.784 32.9486 22.1302C34.1908 20.8855 34.2641 18.9353 33.1117 17.7829L30.3578 15.0288ZM18.4037 28.579L18.4238 28.5991C18.5283 28.7031 18.6594 28.7765 18.8027 28.8113C18.6082 28.6173 18.4044 28.4138 18.1914 28.2011C18.2265 28.344 18.2999 28.4747 18.4037 28.579Z" fill="#8B7EFF"/>
<path d="M18.1075 27.1914C18.1567 27.2199 18.1976 27.2608 18.2261 27.31C18.787 27.8706 19.301 28.3838 19.7441 28.8254L19.7459 28.8272C19.8588 28.9397 19.967 29.0475 20.0705 29.1507C20.4433 29.5217 21.022 29.5478 21.3609 29.2091L21.3797 29.1903C21.4602 29.1087 21.523 29.0112 21.5639 28.9041C21.6048 28.7969 21.623 28.6825 21.6174 28.5679C21.6067 28.3148 21.5002 28.0753 21.3193 27.8979C21.3187 27.8973 21.318 27.8966 21.3174 27.896L18.3635 24.9417C18.333 24.9112 18.3088 24.875 18.2923 24.8352C18.2758 24.7954 18.2674 24.7527 18.2674 24.7096C18.2674 24.6665 18.2758 24.6239 18.2923 24.5841C18.3088 24.5442 18.333 24.5081 18.3635 24.4776C18.3939 24.4471 18.4301 24.423 18.4699 24.4065C18.5097 24.39 18.5524 24.3815 18.5955 24.3815C18.6386 24.3815 18.6813 24.39 18.7211 24.4065C18.7609 24.423 18.7971 24.4471 18.8275 24.4776L23.2314 28.8815L23.842 29.492C24.0193 29.6729 24.2589 29.7795 24.512 29.7901C24.6268 29.7963 24.7417 29.7783 24.8491 29.7372C24.9565 29.696 25.0541 29.6327 25.1354 29.5514C25.2167 29.4701 25.28 29.3725 25.3211 29.2651C25.3622 29.1577 25.3803 29.0429 25.374 28.928C25.3634 28.6749 25.2569 28.4353 25.076 28.258L25.0736 28.2556L20.0615 23.2436C20 23.182 19.9654 23.0986 19.9654 23.0115C19.9654 22.9245 20 22.841 20.0615 22.7795C20.1231 22.718 20.2065 22.6834 20.2935 22.6834C20.3806 22.6834 20.464 22.718 20.5256 22.7795L26.2846 28.5387C26.6576 28.9116 27.2374 28.9387 27.5771 28.5991L27.5969 28.5793C27.9367 28.2395 27.9097 27.6599 27.5369 27.287C27.1752 26.9253 26.7322 26.4823 26.2538 26.0041C26.2422 25.9931 26.2304 25.9818 26.2192 25.9704C26.2142 25.9655 26.2095 25.9603 26.2048 25.9551C25.6316 25.3821 25.0105 24.7612 24.4196 24.1705C23.0624 22.8139 21.8903 21.6423 21.7762 21.5273C21.7453 21.4969 21.7208 21.4606 21.7041 21.4206C21.6874 21.3806 21.6787 21.3377 21.6787 21.2943C21.6786 21.251 21.6872 21.2081 21.7038 21.168C21.7205 21.128 21.7449 21.0917 21.7756 21.0611C21.8064 21.0306 21.8429 21.0064 21.883 20.9901C21.9232 20.9737 21.9662 20.9655 22.0095 20.9659C22.0529 20.9662 22.0957 20.9752 22.1356 20.9922C22.1755 21.0092 22.2116 21.0339 22.2418 21.065C22.3551 21.179 23.5268 22.3502 24.8835 23.7064C25.4888 24.3114 26.1257 24.9481 26.7105 25.5327C27.0834 25.8799 27.6424 25.8983 27.9741 25.5684L27.9759 25.5666C28.3154 25.2272 28.2885 24.6478 27.9161 24.2746L22.7677 19.119L22.3822 18.733L22.1103 18.7597C21.8263 18.7907 21.5388 18.7629 21.266 18.678C20.9931 18.5931 20.7407 18.4529 20.5244 18.2661C20.3135 18.0822 20.1424 17.8571 20.0219 17.6045C19.9013 17.352 19.8338 17.0774 19.8235 16.7978L19.7805 16.3364C19.7736 16.2618 19.7924 16.1869 19.8339 16.1245C19.8754 16.062 19.9371 16.0156 20.0086 15.993L21.9082 15.394L18.6198 14.357C17.5388 14.0162 16.3982 14.2737 15.6429 15.0289L12.889 17.7829C11.7366 18.9353 11.8097 20.8855 13.0521 22.1302C14.7538 23.8351 16.5916 25.676 18.1075 27.1914Z" fill="#8B7EFF"/>
</svg>
