<svg width="20" height="20" viewBox="0 0 20 20" fill="none" xmlns="http://www.w3.org/2000/svg">
<path d="M15.6794 18.7147H4.32516C3.5189 18.7147 2.74566 18.3944 2.17555 17.8243C1.60544 17.2542 1.28516 16.481 1.28516 15.6747V4.32042C1.28667 3.51515 1.60762 2.74338 2.17757 2.17451C2.74752 1.60563 3.51989 1.28613 4.32516 1.28613H15.6794C16.0779 1.28613 16.4725 1.36462 16.8406 1.5171C17.2088 1.66959 17.5432 1.8931 17.825 2.17485C18.1068 2.45661 18.3303 2.79111 18.4828 3.15925C18.6352 3.52738 18.7137 3.92195 18.7137 4.32042V15.6747C18.7137 16.48 18.3942 17.2523 17.8254 17.8223C17.2565 18.3922 16.4847 18.7132 15.6794 18.7147ZM4.32516 2.7147C4.11381 2.71395 3.9044 2.75493 3.70892 2.83529C3.51345 2.91565 3.33576 3.0338 3.18605 3.18298C3.03634 3.33216 2.91755 3.50943 2.8365 3.70462C2.75545 3.8998 2.71373 4.10907 2.71373 4.32042V15.6747C2.71373 16.1021 2.8835 16.512 3.1857 16.8142C3.48791 17.1164 3.89778 17.2861 4.32516 17.2861H15.6794C15.8908 17.2861 16.1001 17.2444 16.2952 17.1634C16.4904 17.0823 16.6677 16.9635 16.8169 16.8138C16.9661 16.6641 17.0842 16.4864 17.1646 16.2909C17.2449 16.0955 17.2859 15.8861 17.2852 15.6747V4.32042C17.2852 3.89456 17.116 3.48614 16.8149 3.18501C16.5137 2.88388 16.1053 2.7147 15.6794 2.7147H4.32516Z" fill="#888888"/>
<path d="M7.72571 10.7147C7.52845 10.714 7.33362 10.6712 7.15429 10.589C6.90347 10.475 6.69113 10.2907 6.54303 10.0585C6.39494 9.82617 6.31746 9.55589 6.32 9.28042V2.00042C6.32 1.81098 6.39526 1.6293 6.52921 1.49534C6.66316 1.36139 6.84485 1.28613 7.03429 1.28613C7.22373 1.28613 7.40541 1.36139 7.53936 1.49534C7.67332 1.6293 7.74857 1.81098 7.74857 2.00042V9.28042L9.09143 8.09185C9.3438 7.86654 9.67026 7.74202 10.0086 7.74202C10.3469 7.74202 10.6733 7.86654 10.9257 8.09185L12.3029 9.28613L12.2571 2.00042C12.2571 1.81098 12.3324 1.6293 12.4664 1.49534C12.6003 1.36139 12.782 1.28613 12.9714 1.28613C13.1609 1.28613 13.3425 1.36139 13.4765 1.49534C13.6105 1.6293 13.6857 1.81098 13.6857 2.00042V9.28042C13.6883 9.55589 13.6108 9.82617 13.4627 10.0585C13.3146 10.2907 13.1022 10.475 12.8514 10.589C12.6081 10.7009 12.3374 10.7394 12.0725 10.6998C11.8076 10.6603 11.56 10.5443 11.36 10.3661L10 9.18899L8.64 10.3718C8.38734 10.594 8.06212 10.7159 7.72571 10.7147ZM10.8571 15.1833H5.71429C5.52485 15.1833 5.34316 15.108 5.20921 14.9741C5.07525 14.8401 5 14.6584 5 14.469C5 14.2795 5.07525 14.0979 5.20921 13.9639C5.34316 13.83 5.52485 13.7547 5.71429 13.7547H10.8571C11.0466 13.7547 11.2283 13.83 11.3622 13.9639C11.4962 14.0979 11.5714 14.2795 11.5714 14.469C11.5714 14.6584 11.4962 14.8401 11.3622 14.9741C11.2283 15.108 11.0466 15.1833 10.8571 15.1833Z" fill="#888888"/>
</svg>
