<svg width="20" height="20" viewBox="0 0 20 20" fill="none" xmlns="http://www.w3.org/2000/svg">
<path d="M1.875 18.75H18.125C18.5 18.75 18.75 18.5 18.75 18.125C18.75 17.75 18.5 17.5 18.125 17.5H2.5V1.875C2.5 1.5 2.25 1.25 1.875 1.25C1.5 1.25 1.25 1.5 1.25 1.875V18.125C1.25 18.5 1.5 18.75 1.875 18.75Z" fill="#888888"/>
<path d="M17.6875 7.0625L15 9.75L13.5625 8.3125C13.3125 8.0625 12.9375 8.0625 12.6875 8.3125L9.375 11.625L7.9375 10.1875C7.6875 9.9375 7.3125 9.9375 7.0625 10.1875L3.9375 13.3125C3.6875 13.5625 3.6875 13.9375 3.9375 14.1875C4.0625 14.3125 4.1875 14.375 4.375 14.375C4.5625 14.375 4.6875 14.3125 4.8125 14.1875L7.5 11.5L8.9375 12.9375C9.0625 13.0625 9.25 13.125 9.375 13.125C9.5 13.125 9.6875 13.0625 9.8125 12.9375L13.125 9.625L14.5625 11.0625C14.8125 11.3125 15.1875 11.3125 15.4375 11.0625L18.5625 7.9375C18.8125 7.6875 18.8125 7.3125 18.5625 7.0625C18.3125 6.8125 17.9375 6.8125 17.6875 7.0625Z" fill="#888888"/>
</svg>
