<svg width="45" height="45" viewBox="0 0 45 45" fill="none" xmlns="http://www.w3.org/2000/svg">
<rect x="0.424528" y="0.424528" width="44.1509" height="44.1509" rx="6.36792" stroke="#343437" stroke-width="0.849057"/>
<g clip-path="url(#clip0_104_1335)">
<path d="M23 23.5C24.4497 23.5 25.625 22.3247 25.625 20.875C25.625 19.4253 24.4497 18.25 23 18.25C21.5503 18.25 20.375 19.4253 20.375 20.875C20.375 22.3247 21.5503 23.5 23 23.5Z" fill="#8B7EFF"/>
<path d="M32.0005 19.7505C31.5363 19.7518 31.0838 19.8966 30.7052 20.1652C30.3265 20.4337 30.0402 20.8128 29.8855 21.2505H28.948C28.7821 19.9291 28.1814 18.7004 27.2404 17.7581C26.2994 16.8157 25.0716 16.2132 23.7505 16.0455V15.1155C24.2509 14.9385 24.6726 14.5904 24.9412 14.1326C25.2097 13.6748 25.3078 13.1368 25.2181 12.6137C25.1283 12.0905 24.8565 11.616 24.4507 11.2739C24.0449 10.9318 23.5312 10.7441 23.0005 10.7441C22.4697 10.7441 21.956 10.9318 21.5502 11.2739C21.1444 11.616 20.8726 12.0905 20.7829 12.6137C20.6931 13.1368 20.7912 13.6748 21.0597 14.1326C21.3283 14.5904 21.7501 14.9385 22.2505 15.1155V16.0455C20.9293 16.2132 19.7016 16.8157 18.7606 17.7581C17.8196 18.7004 17.2188 19.9291 17.053 21.2505H16.1155C15.9385 20.7501 15.5904 20.3283 15.1326 20.0597C14.6748 19.7912 14.1368 19.6931 13.6137 19.7829C13.0905 19.8726 12.616 20.1444 12.2739 20.5502C11.9318 20.956 11.7441 21.4697 11.7441 22.0005C11.7441 22.5312 11.9318 23.0449 12.2739 23.4507C12.616 23.8565 13.0905 24.1283 13.6137 24.2181C14.1368 24.3078 14.6748 24.2097 15.1326 23.9412C15.5904 23.6726 15.9385 23.2509 16.1155 22.7505H17.053C17.1338 23.4026 17.324 24.0365 17.6155 24.6255C18.0024 23.8326 18.5609 23.1358 19.2505 22.5855C19.0023 22.0496 18.8743 21.466 18.8755 20.8755C18.8781 19.9121 19.2166 18.9798 19.8326 18.2392C20.4486 17.4986 21.3037 16.996 22.2505 16.818C22.7462 16.7261 23.2547 16.7261 23.7505 16.818C24.6972 16.996 25.5523 17.4986 26.1683 18.2392C26.7844 18.9798 27.1229 19.9121 27.1255 20.8755C27.1266 21.466 26.9986 22.0496 26.7505 22.5855C27.44 23.1358 27.9985 23.8326 28.3855 24.6255C28.6769 24.0365 28.8671 23.4026 28.948 22.7505H29.8855C30.0231 23.1396 30.265 23.4834 30.5849 23.7443C30.9048 24.0051 31.2903 24.1729 31.6992 24.2293C32.1081 24.2858 32.5247 24.2286 32.9032 24.0642C33.2818 23.8997 33.6079 23.6343 33.8457 23.2969C34.0836 22.9595 34.224 22.5633 34.2517 22.1514C34.2794 21.7396 34.1933 21.3281 34.0028 20.9619C33.8122 20.5958 33.5247 20.2891 33.1715 20.0754C32.8184 19.8617 32.4132 19.7493 32.0005 19.7505Z" fill="#8B7EFF"/>
<path d="M30.6352 29.4104C30.306 29.0828 29.8834 28.8651 29.4255 28.7872C28.9676 28.7093 28.4968 28.7751 28.0777 28.9754L26.1727 27.0704C26.6052 26.8058 27.0011 26.4856 27.3502 26.1179C27.1147 25.2186 26.6064 24.4142 25.8952 23.8154C25.1226 24.574 24.083 24.9989 23.0002 24.9989C21.9175 24.9989 20.8779 24.574 20.1052 23.8154C19.394 24.4142 18.8858 25.2186 18.6502 26.1179C19.0069 26.493 19.4102 26.8206 19.8502 27.0929L17.9602 28.9829C17.541 28.7918 17.0742 28.7303 16.6198 28.8065C16.1654 28.8827 15.7442 29.093 15.4102 29.4104C15.117 29.7011 14.9094 30.0668 14.8101 30.4675C14.7109 30.8682 14.7238 31.2885 14.8474 31.6824C14.9711 32.0763 15.2008 32.4286 15.5113 32.7007C15.8218 32.9728 16.2011 33.1542 16.6078 33.2251C17.0146 33.296 17.4329 33.2536 17.8172 33.1025C18.2014 32.9515 18.5367 32.6977 18.7863 32.3689C19.0359 32.04 19.1902 31.6489 19.2324 31.2382C19.2745 30.8275 19.2029 30.4131 19.0252 30.0404L21.3127 27.7904C22.4248 28.1305 23.6132 28.1305 24.7252 27.7904L27.0202 30.0929C26.8426 30.4656 26.771 30.88 26.8131 31.2907C26.8552 31.7014 27.0096 32.0925 27.2592 32.4214C27.5088 32.7502 27.8441 33.004 28.2283 33.155C28.6125 33.3061 29.0309 33.3485 29.4376 33.2776C29.8444 33.2067 30.2237 33.0253 30.5342 32.7532C30.8447 32.4811 31.0744 32.1288 31.198 31.7349C31.3217 31.341 31.3346 30.9207 31.2353 30.52C31.1361 30.1193 30.9285 29.7536 30.6352 29.4629V29.4104Z" fill="#8B7EFF"/>
</g>
<defs>
<clipPath id="clip0_104_1335">
<rect width="24" height="24" fill="white" transform="translate(11 10)"/>
</clipPath>
</defs>
</svg>
